HIERARCHY
ROOT Hips
{
 OFFSET 0.000000 0.000000 0.000000
 CHANNELS 6 Xposition Yposition Zposition Yrotation Xrotation Zrotation
 JOINT Chest
 {
  OFFSET 0.000000 9.857222 0.000240
  CHANNELS 3 Yrotation Xrotation Zrotation
  JOINT Chest2
  {
   OFFSET 0.000000 10.876940 -0.000436
   CHANNELS 3 Yrotation Xrotation Zrotation
   JOINT Chest3
   {
    OFFSET 0.000000 9.827798 0.000000
    CHANNELS 3 Yrotation Xrotation Zrotation
    JOINT Chest4
    {
     OFFSET 0.000000 9.827798 0.000000
     CHANNELS 3 Yrotation Xrotation Zrotation
     JOINT Neck
     {
      OFFSET 0.000000 13.831992 0.000000
      CHANNELS 3 Yrotation Xrotation Zrotation
      JOINT Head
      {
       OFFSET 0.000000 9.147643 -0.001036
       CHANNELS 3 Yrotation Xrotation Zrotation
       End Site
       {
        OFFSET 0.000000 17.515799 -0.000541
       }
      }
     }
     JOINT RightCollar
     {
      OFFSET -3.001579 7.717577 0.000000
      CHANNELS 3 Yrotation Xrotation Zrotation
      JOINT RightShoulder
      {
       OFFSET -14.002642 0.000000 0.000000
       CHANNELS 3 Yrotation Xrotation Zrotation
       JOINT RightElbow
       {
        OFFSET -30.053852 0.000000 0.000000
        CHANNELS 3 Yrotation Xrotation Zrotation
        JOINT RightWrist
        {
         OFFSET -24.564923 0.000000 -0.000000
         CHANNELS 3 Yrotation Xrotation Zrotation
         End Site
         {
          OFFSET -18.334355 0.000000 0.000000
         }
        }
       }
      }
     }
     JOINT LeftCollar
     {
      OFFSET 3.001579 7.717577 0.000000
      CHANNELS 3 Yrotation Xrotation Zrotation
      JOINT LeftShoulder
      {
       OFFSET 14.002642 0.000000 0.000000
       CHANNELS 3 Yrotation Xrotation Zrotation
       JOINT LeftElbow
       {
        OFFSET 30.053852 0.000000 0.000000
        CHANNELS 3 Yrotation Xrotation Zrotation
        JOINT LeftWrist
        {
         OFFSET 24.564923 0.000000 -0.000000
         CHANNELS 3 Yrotation Xrotation Zrotation
         End Site
         {
          OFFSET 18.334355 0.000000 0.000000
         }
        }
       }
      }
     }
    }
   }
  }
 }
 JOINT RightHip
 {
  OFFSET -8.003235 -0.001175 -0.000120
  CHANNELS 3 Yrotation Xrotation Zrotation
  JOINT RightKnee
  {
   OFFSET 0.000000 -41.759727 0.000113
   CHANNELS 3 Yrotation Xrotation Zrotation
   JOINT RightAnkle
   {
    OFFSET 0.000000 -40.728748 0.000159
    CHANNELS 3 Yrotation Xrotation Zrotation
    JOINT RightToe
    {
     OFFSET 0.000000 -6.515296 14.732841
     CHANNELS 3 Yrotation Xrotation Zrotation
     End Site
     {
      OFFSET 0.000000 -1.502839 6.412115
     }
    }
   }
  }
 }
 JOINT LeftHip
 {
  OFFSET 8.003235 -0.001175 -0.000120
  CHANNELS 3 Yrotation Xrotation Zrotation
  JOINT LeftKnee
  {
   OFFSET 0.000000 -41.759727 0.000113
   CHANNELS 3 Yrotation Xrotation Zrotation
   JOINT LeftAnkle
   {
    OFFSET 0.000000 -40.728748 0.000159
    CHANNELS 3 Yrotation Xrotation Zrotation
    JOINT LeftToe
    {
     OFFSET 0.000000 -6.515296 14.732841
     CHANNELS 3 Yrotation Xrotation Zrotation
     End Site
     {
      OFFSET 0.000000 -1.502839 6.412115
     }
    }
   }
  }
 }
}
MOTION
Frames: 15
Frame Time: 0.016667
5.437867 90.320412 7.170473 -31.369727 -20.733678 -1.258980 0.042772 1.024196 0.759025 -0.019109 0.466486 0.333302 -0.019109 0.466486 0.333302 -0.014586 0.349854 0.249989 -8.708648 32.198897 -2.105624 -15.105219 23.704164 -2.442053 6.589699 25.709390 3.447442 59.692175 32.446063 -16.718723 59.826033 -19.538238 -21.598743 6.379023 -6.833809 0.778586 -23.189991 29.186778 -9.002059 -37.740480 26.037918 22.815032 -32.500443 -4.495911 15.503655 6.313985 0.385934 4.789884 -12.110426 14.086193 -0.524995 -1.060254 11.772489 -6.768925 1.239976 -5.084948 2.871212 0.388931 -0.231865 0.159469 1.131789 23.271065 6.001241 3.562765 5.305568 -3.549175 -0.227292 -6.937880 -1.514422 -0.293900 -0.138937 -0.160740
5.482116 90.312442 7.070155 -31.322780 -21.052078 -1.261542 0.243381 1.409478 0.783267 0.061188 0.632400 0.343965 0.061188 0.632400 0.343965 0.045534 0.474335 0.257908 -8.781312 31.914059 -1.914942 -15.257487 23.200420 -2.063855 7.218684 27.357864 4.274764 62.094649 30.147548 -15.508721 56.937299 -16.112853 -15.817993 6.420016 -6.841794 1.332326 -23.456031 29.868895 -9.076147 -38.998059 26.182448 21.952524 -34.513368 -3.256813 14.388821 6.218900 0.193135 4.329798 -12.416332 14.332377 -0.667554 -0.932972 11.745015 -6.759189 1.357925 -5.080295 2.879084 0.318019 -0.161844 0.122290 1.052899 23.456542 5.962863 3.663348 5.431965 -3.486654 -0.319519 -6.962099 -1.548069 -0.258059 -0.083468 -0.148834
5.519652 90.299934 6.983865 -31.209146 -21.272331 -1.263554 0.412767 1.669405 0.746514 0.125114 0.739289 0.321394 0.125114 0.739289 0.321394 0.093445 0.554533 0.240891 -8.770032 31.728776 -1.671178 -15.272742 22.882924 -1.615300 8.210710 29.863179 5.356957 63.568908 28.392683 -14.743653 54.994206 -13.366968 -11.688810 6.394496 -6.519182 1.582839 -24.228672 30.556186 -9.507700 -40.447070 26.119800 20.302548 -35.931539 -1.428981 13.145195 6.167836 0.042449 3.775891 -12.750273 14.495629 -0.811697 -0.819238 11.713224 -6.747596 1.459797 -5.075203 2.874610 0.290550 -0.104111 0.105690 0.935248 23.553894 5.906066 3.686461 5.537139 -3.424459 -0.338627 -6.983928 -1.582582 -0.239619 -0.023183 -0.140363
5.558569 90.286875 6.915086 -31.050419 -21.339822 -1.259799 0.446837 1.764712 0.712974 0.123670 0.779201 0.297365 0.123670 0.779201 0.297365 0.092372 0.584461 0.222863 -8.672982 31.633281 -1.488906 -15.128326 22.720581 -1.297755 8.965674 31.338274 6.123876 65.402690 27.611571 -12.764117 53.861969 -11.221071 -8.210030 6.323913 -5.954956 1.623742 -25.622985 31.125815 -10.634598 -41.886835 25.959427 17.727477 -36.496059 1.180290 11.932233 6.074807 -0.112893 3.223454 -13.074221 14.523924 -0.939212 -0.726375 11.673495 -6.724051 1.473533 -5.067762 2.883611 0.250432 -0.051969 0.083718 0.804559 23.515581 5.841192 3.653816 5.614546 -3.374984 -0.362322 -7.001204 -1.615291 -0.210816 0.037706 -0.124232
5.593019 90.272739 6.858812 -30.899496 -21.328293 -1.250710 0.535041 1.794008 0.656220 0.150294 0.790347 0.261016 0.150294 0.790347 0.261016 0.112381 0.592825 0.195565 -8.574278 31.573173 -1.280558 -14.985940 22.626279 -0.938564 9.665051 32.125056 7.087745 67.112095 26.492858 -10.115273 52.920362 -8.594825 -4.892809 6.225869 -5.730890 2.020198 -27.157423 32.069841 -11.852005 -43.291601 25.375178 15.111367 -36.802601 4.107033 10.818014 5.990202 -0.274564 2.824303 -13.332637 14.497401 -1.037135 -0.670496 11.603156 -6.713422 1.489868 -5.057355 2.902617 0.224947 0.005299 0.068271 0.705526 23.425432 5.782938 3.584007 5.650170 -3.336092 -0.370816 -7.010747 -1.639825 -0.187292 0.099565 -0.109898
5.619079 90.266328 6.823183 -30.782927 -21.402946 -1.244609 0.688162 1.900754 0.584616 0.211475 0.838103 0.220093 0.211475 0.838103 0.220093 0.158301 0.628653 0.164777 -8.488196 31.481297 -1.049144 -14.869707 22.476337 -0.533498 10.412335 33.591390 8.226724 68.372933 24.067077 -8.206101 52.071822 -5.875144 -1.175316 6.099623 -5.484016 2.344075 -28.278704 32.974225 -12.682433 -45.232031 23.854634 12.409643 -37.265268 7.326934 9.177404 5.956740 -0.364652 2.446396 -13.498295 14.567034 -1.123014 -0.634232 11.546107 -6.699381 1.484462 -5.041657 2.921393 0.202290 0.038673 0.054386 0.647260 23.455381 5.738013 3.519313 5.651223 -3.290572 -0.389868 -7.000016 -1.670485 -0.161989 0.137634 -0.093700
5.628603 90.273429 6.798998 -30.732899 -21.567188 -1.247716 0.799944 2.036794 0.568610 0.258149 0.909311 0.203037 0.258149 0.909311 0.203037 0.193306 0.682069 0.151890 -8.409226 31.393595 -0.903709 -14.752665 22.325143 -0.279488 11.130124 34.695015 9.144699 69.900932 20.811911 -5.762974 51.136960 -3.211383 3.027163 6.057737 -5.289104 2.433424 -29.342261 33.903757 -13.649281 -46.785912 21.726317 9.930965 -38.145378 10.372288 7.259684 5.884561 -0.575262 2.112475 -13.545260 14.744279 -1.180265 -0.653194 11.470237 -6.684734 1.506783 -4.984711 2.923111 0.200187 0.034522 0.051190 0.696698 23.612914 5.755057 3.459598 5.601956 -3.265449 -0.420508 -6.942314 -1.694215 -0.142424 0.136855 -0.080083
5.626153 90.287445 6.784035 -30.706004 -21.745420 -1.236848 0.694316 2.124230 0.664768 0.212618 0.957242 0.238528 0.212618 0.957242 0.238528 0.159086 0.718015 0.178558 -8.321428 31.349408 -0.978431 -14.584607 22.230053 -0.419662 12.029624 34.420724 9.838498 71.275950 18.230631 -2.014388 50.307277 -0.699234 7.414374 6.045019 -4.800216 2.438104 -30.480146 34.460674 -15.252876 -47.308674 19.840723 7.837851 -39.631444 12.222189 5.249878 5.794005 -0.851906 2.104193 -13.548526 14.947556 -1.230182 -0.682674 11.392598 -6.673506 1.502154 -4.924927 2.920784 0.197393 0.018137 0.049226 0.772310 23.808431 5.775410 3.381727 5.524686 -3.245148 -0.442467 -6.861020 -1.720171 -0.128146 0.112089 -0.068898
5.610796 90.295840 6.773814 -30.693480 -21.867027 -1.214409 0.571416 2.231998 0.796202 0.164946 1.007636 0.292346 0.164946 1.007636 0.292346 0.123224 0.755806 0.218982 -8.264082 31.277941 -1.113198 -14.460511 22.080194 -0.658374 13.309515 34.936751 10.862726 71.287562 16.426805 0.483873 49.823519 2.190990 10.843367 5.942667 -4.377903 2.512488 -31.197251 34.562243 -16.656737 -47.616422 18.212536 5.990739 -41.462289 12.465834 3.299981 5.765678 -0.761112 2.308508 -13.537007 15.109079 -1.267579 -0.690962 11.306747 -6.668578 1.478341 -4.889485 2.927601 0.189389 0.021709 0.044263 0.863774 23.964043 5.798998 3.267118 5.426911 -3.232798 -0.436629 -6.789479 -1.750930 -0.113340 0.096018 -0.057475
5.583255 90.301434 6.775421 -30.689262 -22.049101 -1.203181 0.597886 2.412971 0.860048 0.184647 1.092149 0.319875 0.184647 1.092149 0.319875 0.137910 0.819209 0.239569 -8.241967 31.184014 -1.132108 -14.417616 21.903144 -0.685249 13.928595 35.246297 11.809532 71.487624 15.844576 3.529851 49.322787 4.795237 12.075397 5.877938 -4.324199 2.633333 -31.624284 34.565318 -17.610425 -48.632596 15.914790 3.602295 -42.583917 12.874960 1.142525 5.719757 -0.464560 2.733349 -13.539321 15.344447 -1.317221 -0.705982 11.212430 -6.659763 1.509235 -4.861960 2.937161 0.172819 0.025658 0.032109 0.975832 24.204839 5.843279 3.162240 5.303030 -3.216079 -0.433641 -6.725593 -1.788733 -0.097933 0.086951 -0.047042
5.551664 90.316520 6.800083 -30.662405 -22.275488 -1.199941 0.677684 2.598643 0.886384 0.233464 1.179540 0.338809 0.233464 1.179540 0.338809 0.174438 0.884785 0.253647 -8.254044 31.097032 -1.096935 -14.444391 21.746556 -0.612289 13.972663 34.994918 12.494917 71.868464 15.216344 7.345982 48.982665 5.849237 12.697608 5.835002 -4.186456 2.311360 -32.394286 35.065428 -18.799482 -49.784942 12.557286 0.999604 -42.810926 14.199796 -1.273032 5.631505 -0.204095 3.297293 -13.628594 15.630486 -1.417988 -0.642318 11.118190 -6.617971 1.530467 -4.803078 2.952142 0.136676 -0.006764 0.008491 1.107483 24.520328 5.905416 3.029524 5.143220 -3.208770 -0.463320 -6.633669 -1.818795 -0.069998 0.050609 -0.033594
5.512150 90.325897 6.838800 -30.733566 -22.314359 -1.175842 0.645902 2.577462 1.008987 0.225326 1.172578 0.395536 0.225326 1.172578 0.395536 0.168229 0.879580 0.296209 -8.269894 31.104876 -1.204604 -14.454682 21.750693 -0.800509 14.191813 34.745858 12.910552 72.061783 13.636089 11.464035 48.526848 5.736204 13.781519 5.811217 -4.053744 1.667106 -32.541039 35.465136 -19.817607 -50.672707 8.461713 -1.825807 -43.182370 15.597306 -4.325622 5.440274 -0.125290 4.160422 -13.720987 15.746324 -1.506741 -0.486089 11.013780 -6.554899 1.559313 -4.774394 2.967681 0.099707 -0.010375 -0.015364 1.346961 24.673419 5.979400 2.914791 4.959629 -3.187762 -0.485917 -6.557111 -1.846743 -0.054274 0.026664 -0.029042
5.464156 90.321945 6.886950 -30.810912 -22.361668 -1.142155 0.495267 2.578849 1.185727 0.165568 1.171619 0.479460 0.165568 1.171619 0.479460 0.123253 0.878845 0.359265 -8.267709 31.124479 -1.411215 -14.416656 21.765483 -1.167195 14.478243 34.358600 13.163586 71.768638 12.048825 15.272148 47.930396 5.199512 15.781913 5.765139 -3.620309 1.171474 -31.863026 35.125474 -20.187512 -51.061616 4.775989 -5.443715 -43.748352 15.777145 -7.114657 5.328716 -0.082119 5.267535 -13.874880 15.877925 -1.628676 -0.299855 10.900762 -6.497662 1.648168 -4.781601 2.989408 0.049841 0.015500 -0.041563 1.537914 24.854228 6.037641 2.867752 4.768042 -3.184607 -0.520961 -6.506599 -1.869853 -0.036015 0.024581 -0.023571
5.403243 90.321788 6.952387 -30.864915 -22.521188 -1.127077 0.447855 2.642737 1.402321 0.150103 1.203577 0.581048 0.150103 1.203577 0.581048 0.111429 0.902827 0.435475 -8.330740 31.121843 -1.626839 -14.492595 21.741889 -1.537365 14.412751 34.001679 13.409309 71.073442 10.693217 18.773468 46.941004 6.431929 18.126400 5.551957 -3.060863 1.174915 -31.277652 34.860887 -20.408190 -51.382667 0.942358 -9.836563 -43.813583 14.770900 -9.238340 5.381177 0.112596 6.820384 -14.057308 16.141921 -1.766062 -0.135374 10.772559 -6.455327 1.740084 -4.778070 3.016183 0.000139 0.024349 -0.065608 1.695542 25.164445 6.116934 2.850076 4.573316 -3.203183 -0.585497 -6.456422 -1.884522 -0.014616 0.011973 -0.016580
5.341045 90.325137 7.041201 -30.870324 -22.629779 -1.120033 0.277842 2.576875 1.642103 0.080202 1.177699 0.695668 0.080202 1.177699 0.695668 0.058809 0.883367 0.521578 -8.341295 31.156227 -1.934792 -14.460556 21.775192 -2.082300 14.357340 33.963489 13.508306 70.320788 9.839734 22.328346 45.814383 9.280001 19.743487 5.323512 -2.808506 1.377061 -30.731831 34.777973 -20.975895 -51.471900 -3.177338 -14.664361 -43.039258 12.294621 -11.213927 5.569024 0.850732 9.087872 -14.279543 16.376588 -1.916842 0.000382 10.632510 -6.403323 1.799129 -4.772583 3.050617 -0.049193 0.023042 -0.090706 1.754117 25.439752 6.156421 2.860527 4.376860 -3.229943 -0.614303 -6.409683 -1.887583 0.001601 -0.006287 -0.010114
